# xmcd CD database file generated by Grip 3.2.0
# 
# Track frame offsets:
#       150
#       13752
#       29755
#       40294
#       62015
#       84105
#       104439
#       123571
#       135983
#       155655
#       166139
#       181825
#       195072
#       205935
#       223769
#       239525
# 
# Disc length: 3371 seconds
# 
# Revision: 1
# Processed by: cddbd v1.5.2PL0 Copyright (c) Steve Scherf et al.
# Submitted via: Grip 3.2.0
# 
DISCID=d60d2910
DTITLE=Various Artist - Lady Sings the blues [CD2]
DYEAR=2003
DGENRE=Blues
TTITLE0=Etta James - At Last
TTITLE1=Dorothy Moore - Misty Blue
TTITLE2=Kay Starr - Baby won't you please come home
TTITLE3=Molly Johnson  - Diamond in my hand
TTITLE4=The Staple Singers - Respect yourself
TTITLE5=Janis Joplin - Me and Bobby McGee
TTITLE6=Bobbie Gentry  - Ode to Billie Joe
TTITLE7=Little Esther - Aged and mellow blues
TTITLE8=Diana Krall - I'm just a lucky so and so
TTITLE9=Dinah Washington - Call me irresponsible
TTITLE10=Sara Vaughan - Stormy weather
TTITLE11=Billie Holiday - God bless the child
TTITLE12=Aretha Franklin - Respect
TTITLE13=Patti Labelle - Lady Marmelade
TTITLE14=Tina Turner - Night time is the right time
TTITLE15=Eartha Kitt - C'est si bon
EXTD=
EXTT0=
EXTT1=
EXTT2=
EXTT3=
EXTT4=
EXTT5=
EXTT6=
EXTT7=
EXTT8=
EXTT9=
EXTT10=
EXTT11=
EXTT12=
EXTT13=
EXTT14=
EXTT15=
PLAYORDER=
